<?xml version="1.0" standalone="no"?>
<!DOCTYPE svg PUBLIC "-//W3C//DTD SVG 20010904//EN"
 "http://www.w3.org/TR/2001/REC-SVG-20010904/DTD/svg10.dtd">
<svg version="1.0" xmlns="http://www.w3.org/2000/svg"
 width="512.000000pt" height="512.000000pt" viewBox="0 0 512.000000 512.000000"
 preserveAspectRatio="xMidYMid meet">
<metadata>
Created by potrace 1.14, written by Peter Selinger 2001-2017
</metadata>
<g transform="translate(0.000000,512.000000) scale(0.100000,-0.100000)"
fill="#000000" stroke="none">
<path d="M2688 4705 c-2 -1 -45 -6 -96 -9 -51 -4 -103 -9 -115 -12 -12 -2 -38
-7 -57 -10 -103 -16 -310 -80 -405 -125 -34 -16 -65 -29 -68 -29 -13 0 -194
-103 -276 -158 -182 -120 -411 -324 -546 -487 -28 -33 -56 -66 -63 -74 -60
-63 -221 -297 -307 -446 -303 -523 -430 -953 -428 -1445 0 -80 3 -169 7 -198
3 -29 9 -76 12 -104 21 -185 94 -428 181 -606 154 -311 383 -513 655 -576 82
-19 277 -19 360 0 193 45 283 141 316 334 6 35 7 175 2 510 -1 96 1 191 4 210
35 195 77 289 172 384 107 107 233 156 404 158 73 1 177 -9 230 -22 19 -5 51
-11 70 -14 19 -3 51 -10 70 -15 91 -25 155 -39 158 -36 2 2 -43 63 -99 137
-57 73 -103 134 -103 134 -1 1 -42 4 -92 6 -108 6 -168 30 -227 93 -95 99
-119 196 -119 498 -1 250 -10 313 -61 420 l-36 77 52 1 c140 3 309 -5 326 -16
4 -2 22 -6 41 -9 102 -16 260 -81 357 -147 64 -44 148 -132 183 -195 59 -103
70 -224 31 -350 -18 -60 -18 -62 1 -85 10 -13 82 -107 160 -209 78 -102 186
-243 240 -314 55 -70 105 -137 111 -147 15 -24 20 -24 94 0 81 26 139 56 263
138 331 219 586 518 683 803 37 110 46 172 43 295 -8 225 -112 483 -296 726
-87 114 -294 319 -415 409 -55 41 -101 78 -103 83 -2 4 -7 7 -12 7 -4 0 -48
25 -96 56 -187 118 -424 223 -632 280 -70 19 -140 37 -157 39 -16 3 -41 8 -55
10 -80 17 -352 39 -362 30z m720 -410 c79 -15 160 -82 202 -169 44 -91 53
-163 34 -267 -50 -269 -310 -417 -517 -296 -225 132 -213 518 20 679 81 55
161 72 261 53z m-1143 -65 c196 -89 299 -394 200 -590 -92 -182 -305 -198
-455 -33 -86 94 -127 200 -128 330 0 154 75 274 198 314 40 14 132 3 185 -21z
m-913 -775 c58 -13 148 -65 193 -112 92 -96 127 -231 90 -344 -26 -79 -102
-151 -185 -177 -93 -28 -168 -22 -270 24 -97 43 -177 140 -205 246 -60 226
136 415 377 363z m2963 -60 c59 -28 90 -53 123 -99 152 -211 31 -556 -225
-642 -155 -52 -303 7 -373 149 -132 268 80 625 365 613 42 -1 86 -10 110 -21z
m-3045 -1718 c145 -53 258 -176 311 -339 30 -92 33 -244 5 -323 -82 -235 -303
-331 -525 -227 -66 31 -175 135 -213 204 -108 195 -99 424 23 579 89 113 258
158 399 106z"/>
<path d="M2475 3119 c5 -13 9 -136 11 -272 2 -252 10 -318 44 -387 35 -69 84
-90 210 -90 75 0 75 0 157 56 46 30 97 74 115 97 44 55 76 153 73 222 -10 184
-250 351 -564 391 -54 7 -54 7 -46 -17z"/>
<path d="M3076 2250 c-36 -28 -66 -55 -66 -60 0 -5 69 -99 153 -208 83 -109
163 -213 177 -232 28 -37 271 -353 365 -475 34 -44 97 -127 141 -185 132 -173
474 -620 519 -678 l26 -32 61 47 c34 27 66 51 72 55 6 4 -43 76 -114 170 -122
160 -290 379 -313 408 -13 16 -133 173 -302 395 -55 71 -105 137 -112 145 -7
8 -95 123 -195 255 -101 132 -219 286 -262 343 -43 56 -79 102 -81 102 -1 0
-32 -23 -69 -50z"/>
</g>
</svg>
